<svg xmlns="http://www.w3.org/2000/svg" viewBox="0 0 28.3 28.2"><path d="M26.4 14.1l1.9-2.1c-.1-.7-.3-1.5-.5-2.2l-2.5-1c-.6-1.3-1.4-2.5-2.4-3.5l-.1-2.6c-.6-.4-1.2-.9-1.9-1.2l-2.4 1c-1.3-.5-2.8-.8-4.3-.8h-.1L12.2 0c-.7.1-1.5.3-2.2.5L9 2.9c-1.3.6-2.6 1.5-3.6 2.5l-2.6.1c-.4.6-.9 1.2-1.2 1.9l1 2.5c-.4 1.3-.7 2.6-.7 4v.1L0 16.1c.1.7.3 1.5.5 2.2l2.7 1.1c.6 1.1 1.3 2.2 2.2 3.1l.1 3c.6.4 1.2.9 1.9 1.2l2.8-1.2c1.1.4 2.3.6 3.6.6l2.2 2.1c.7-.1 1.5-.3 2.2-.5l1.2-2.8c1.1-.5 2.1-1.3 3-2.1l3-.1c.4-.6.9-1.2 1.2-1.9l-1-2.8c.5-1.3.8-2.6.8-3.9zm-12.1 3.1c-1.8 0-3.3-1.5-3.3-3.3s1.5-3.3 3.3-3.3 3.3 1.5 3.3 3.3c0 1.9-1.5 3.3-3.3 3.3z" fill="#27aae1"/></svg>
