<?xml version="1.0" encoding="utf-8"?>
<!-- Generator: Adobe Illustrator 22.1.0, SVG Export Plug-In . SVG Version: 6.00 Build 0)  -->
<svg version="1.1" id="Layer_1" xmlns="http://www.w3.org/2000/svg" xmlns:xlink="http://www.w3.org/1999/xlink" x="0px" y="0px"
	 viewBox="0 0 342.3 24.1" style="enable-background:new 0 0 342.3 24.1;" xml:space="preserve">
<style type="text/css">
	.st0{fill:#683037;}
	.st1{fill:url(#SVGID_1_);}
</style>
<path class="st0" d="M0,18.7h2.5V5.8H0V0.4h12v5.4H9.5v12.5h3.6V15h5.8v8.7H0V18.7z"/>
<path class="st0" d="M32.8,0c7.3,0,12.4,5.2,12.4,11.9c0,6.9-5.1,12.2-12.4,12.2s-12.4-5.4-12.4-12.2C20.4,5.2,25.5,0,32.8,0z
	 M32.8,18.1c2.8,0,5.2-2.6,5.2-6.2C38,8.5,35.6,6,32.8,6s-5.2,2.5-5.2,5.9C27.6,15.5,30,18.1,32.8,18.1z"/>
<path class="st0" d="M46.4,0.4h11.3v5H55l1.5,8.1c0.2,1.3,0.3,2.8,0.3,2.8H57c0,0,0.1-1.5,0.4-2.8l3-13.1h5.3l3,13.1
	c0.3,1.3,0.4,2.8,0.4,2.8h0.1c0,0,0.1-1.5,0.3-2.8L71,5.4h-2.7v-5h11.3v5h-1.8l-4.4,18.4h-7.7L63.5,14c-0.3-1.3-0.4-2.9-0.4-2.9H63
	c0,0-0.2,1.7-0.5,2.9l-2.2,9.8h-7.7L48.2,5.4h-1.8V0.4z"/>
<path class="st0" d="M81.7,18.7h2.5V5.4h-2.5v-5h18.5V8h-5.8V5.8h-3.2v3.4h6.2v5.5h-6.2v3.6h3.5v-2.1h5.8v7.5H81.7V18.7z"/>
<path class="st0" d="M103.6,18.7h2.5V5.8h-2.5V0.4h12v5.4h-2.5v12.5h3.6V15h5.8v8.7h-18.9V18.7z"/>
<path class="st0" d="M124.7,18.7h2.5V5.8h-2.5V0.4h12v5.4h-2.5v12.5h3.6V15h5.8v8.7h-18.9C124.7,23.7,124.7,18.7,124.7,18.7z"/>
<linearGradient id="SVGID_1_" gradientUnits="userSpaceOnUse" x1="155.1" y1="13.9" x2="342.3" y2="13.9" gradientTransform="matrix(1 0 0 -1 0 26)">
	<stop  offset="0" style="stop-color:#1B75BC"/>
	<stop  offset="1" style="stop-color:#27AAE1"/>
</linearGradient>
<path class="st1" d="M155.1,0.5h14.6v4.9h-8.9v4.2h7.1v4.9h-7.1v4.4h9.3v4.9h-15L155.1,0.5L155.1,0.5z M171.3,0.5h6.2l4.1,13.2
	c0.5,1.5,0.9,3.7,0.9,3.7h0.1c0,0,0.4-2.3,0.9-3.7l4.2-13.2h6.1l-8.2,23.2h-5.9L171.3,0.5z M206.5,0.1c7,0,12.1,5.2,12.1,11.9
	c0,6.8-5.1,12.1-12.1,12.1s-12.2-5.3-12.2-12.1C194.4,5.3,199.5,0.1,206.5,0.1z M206.5,18.9c3.5,0,6.3-3,6.3-7
	c0-3.8-2.8-6.7-6.3-6.7s-6.3,2.9-6.3,6.7C200.3,16,203.1,18.9,206.5,18.9z M222.6,0.5h5.7v18.4h9.5v4.9h-15.2V0.5z M240.3,0.5h5.7
	v14.7c0,2.4,1.6,3.7,4,3.7s4-1.3,4-3.7V0.5h5.7v14.7c0,5.2-3.8,8.9-9.7,8.9s-9.7-3.7-9.7-8.9L240.3,0.5L240.3,0.5z M269.3,5.4h-7
	V0.5h19.8v4.9h-7v18.4h-5.7L269.3,5.4L269.3,5.4z M284.9,0.5h5.7v23.2h-5.7V0.5z M306.6,0.1c7,0,12.1,5.2,12.1,11.9
	c0,6.8-5.1,12.1-12.1,12.1s-12.2-5.3-12.2-12.1C294.5,5.3,299.6,0.1,306.6,0.1z M306.6,18.9c3.5,0,6.3-3,6.3-7
	c0-3.8-2.8-6.7-6.3-6.7s-6.3,2.9-6.3,6.7C300.4,16,303.2,18.9,306.6,18.9z M322.7,0.5h5.8l6.4,10.9c0.9,1.5,1.9,4,1.9,4h0.1
	c0,0-0.3-2.5-0.3-4V0.5h5.7v23.2h-5.7l-6.5-10.8c-0.9-1.5-1.9-4-1.9-4h-0.1c0,0,0.3,2.5,0.3,4v10.8h-5.7L322.7,0.5L322.7,0.5z"/>
</svg>
